<svg width="163" height="187" viewBox="0 0 163 187" fill="none" xmlns="http://www.w3.org/2000/svg">
<line x1="49.7485" y1="91.1285" x2="126.749" y2="91.1285" stroke="#DCE2E8" stroke-width="15"/>
<g filter="url(#filter0_d_0_1)">
<mask id="path-2-inside-1_0_1" fill="white">
<path d="M143.838 139.26C147.736 142.834 148.114 148.876 144.265 152.591C133.818 162.679 121.344 170.18 107.891 174.395C91.5064 179.527 74.404 179.555 58.7464 174.473C43.0887 169.392 29.579 159.431 19.9255 145.848C10.2721 132.266 4.90856 115.673 4.51315 98.1679C4.11774 80.6626 8.70823 63.0311 17.7041 47.5032C26.7 31.9752 39.6973 19.2481 55.0523 10.9313C70.4073 2.61455 87.4305 -0.918378 103.969 0.779296C117.095 2.12662 129.447 6.72041 140.059 14.1275C144.724 17.3843 145.049 23.8964 141.331 28.2653C137.334 32.9624 130.239 33.3418 125.013 30.1489C117.629 25.6368 109.286 22.8164 100.485 21.9131C87.8945 20.6207 74.9348 23.3103 63.2451 29.6418C51.5555 35.9733 41.6607 45.6624 34.8122 57.4837C27.9637 69.3051 24.469 82.7278 24.77 96.0545C25.071 109.381 29.1542 122.013 36.5033 132.353C43.8524 142.693 54.1373 150.277 66.0574 154.145C77.9775 158.014 90.9974 157.993 103.471 154.085C112.689 151.198 121.302 146.284 128.731 139.731C133.047 135.925 139.648 135.417 143.838 139.26Z"/>
</mask>
<path d="M143.838 139.26C147.736 142.834 148.114 148.876 144.265 152.591C133.818 162.679 121.344 170.18 107.891 174.395C91.5064 179.527 74.404 179.555 58.7464 174.473C43.0887 169.392 29.579 159.431 19.9255 145.848C10.2721 132.266 4.90856 115.673 4.51315 98.1679C4.11774 80.6626 8.70823 63.0311 17.7041 47.5032C26.7 31.9752 39.6973 19.2481 55.0523 10.9313C70.4073 2.61455 87.4305 -0.918378 103.969 0.779296C117.095 2.12662 129.447 6.72041 140.059 14.1275C144.724 17.3843 145.049 23.8964 141.331 28.2653C137.334 32.9624 130.239 33.3418 125.013 30.1489C117.629 25.6368 109.286 22.8164 100.485 21.9131C87.8945 20.6207 74.9348 23.3103 63.2451 29.6418C51.5555 35.9733 41.6607 45.6624 34.8122 57.4837C27.9637 69.3051 24.469 82.7278 24.77 96.0545C25.071 109.381 29.1542 122.013 36.5033 132.353C43.8524 142.693 54.1373 150.277 66.0574 154.145C77.9775 158.014 90.9974 157.993 103.471 154.085C112.689 151.198 121.302 146.284 128.731 139.731C133.047 135.925 139.648 135.417 143.838 139.26Z" fill="#06BAC9"/>
<path d="M143.838 139.26C147.736 142.834 148.114 148.876 144.265 152.591C133.818 162.679 121.344 170.18 107.891 174.395C91.5064 179.527 74.404 179.555 58.7464 174.473C43.0887 169.392 29.579 159.431 19.9255 145.848C10.2721 132.266 4.90856 115.673 4.51315 98.1679C4.11774 80.6626 8.70823 63.0311 17.7041 47.5032C26.7 31.9752 39.6973 19.2481 55.0523 10.9313C70.4073 2.61455 87.4305 -0.918378 103.969 0.779296C117.095 2.12662 129.447 6.72041 140.059 14.1275C144.724 17.3843 145.049 23.8964 141.331 28.2653C137.334 32.9624 130.239 33.3418 125.013 30.1489C117.629 25.6368 109.286 22.8164 100.485 21.9131C87.8945 20.6207 74.9348 23.3103 63.2451 29.6418C51.5555 35.9733 41.6607 45.6624 34.8122 57.4837C27.9637 69.3051 24.469 82.7278 24.77 96.0545C25.071 109.381 29.1542 122.013 36.5033 132.353C43.8524 142.693 54.1373 150.277 66.0574 154.145C77.9775 158.014 90.9974 157.993 103.471 154.085C112.689 151.198 121.302 146.284 128.731 139.731C133.047 135.925 139.648 135.417 143.838 139.26Z" stroke="#06BAC9" stroke-width="2" mask="url(#path-2-inside-1_0_1)"/>
</g>
<g filter="url(#filter1_d_0_1)">
<path d="M101.653 57.2637L150.741 129.07" stroke="#DCE2E8" stroke-width="16" stroke-linecap="round"/>
</g>
<g filter="url(#filter2_d_0_1)">
<path d="M88.2391 36.6816L27.8774 129.301" stroke="#DCE2E8" stroke-width="20" stroke-linecap="round"/>
</g>
<defs>
<filter id="filter0_d_0_1" x="0.489624" y="0.364136" width="150.475" height="185.9" filterUnits="userSpaceOnUse" color-interpolation-filters="sRGB">
<feFlood flood-opacity="0" result="BackgroundImageFix"/>
<feColorMatrix in="SourceAlpha" type="matrix" values="0 0 0 0 0 0 0 0 0 0 0 0 0 0 0 0 0 0 127 0" result="hardAlpha"/>
<feOffset dy="4"/>
<feGaussianBlur stdDeviation="2"/>
<feComposite in2="hardAlpha" operator="out"/>
<feColorMatrix type="matrix" values="0 0 0 0 0 0 0 0 0 0 0 0 0 0 0 0 0 0 0.25 0"/>
<feBlend mode="normal" in2="BackgroundImageFix" result="effect1_dropShadow_0_1"/>
<feBlend mode="normal" in="SourceGraphic" in2="effect1_dropShadow_0_1" result="shape"/>
</filter>
<filter id="filter1_d_0_1" x="89.571" y="49.3445" width="73.2517" height="95.6448" filterUnits="userSpaceOnUse" color-interpolation-filters="sRGB">
<feFlood flood-opacity="0" result="BackgroundImageFix"/>
<feColorMatrix in="SourceAlpha" type="matrix" values="0 0 0 0 0 0 0 0 0 0 0 0 0 0 0 0 0 0 127 0" result="hardAlpha"/>
<feOffset dy="4"/>
<feGaussianBlur stdDeviation="2"/>
<feComposite in2="hardAlpha" operator="out"/>
<feColorMatrix type="matrix" values="0 0 0 0 0 0 0 0 0 0 0 0 0 0 0 0 0 0 0.25 0"/>
<feBlend mode="normal" in2="BackgroundImageFix" result="effect1_dropShadow_0_1"/>
<feBlend mode="normal" in="SourceGraphic" in2="effect1_dropShadow_0_1" result="shape"/>
</filter>
<filter id="filter2_d_0_1" x="13.7788" y="26.7787" width="88.559" height="120.425" filterUnits="userSpaceOnUse" color-interpolation-filters="sRGB">
<feFlood flood-opacity="0" result="BackgroundImageFix"/>
<feColorMatrix in="SourceAlpha" type="matrix" values="0 0 0 0 0 0 0 0 0 0 0 0 0 0 0 0 0 0 127 0" result="hardAlpha"/>
<feOffset dy="4"/>
<feGaussianBlur stdDeviation="2"/>
<feComposite in2="hardAlpha" operator="out"/>
<feColorMatrix type="matrix" values="0 0 0 0 0 0 0 0 0 0 0 0 0 0 0 0 0 0 0.25 0"/>
<feBlend mode="normal" in2="BackgroundImageFix" result="effect1_dropShadow_0_1"/>
<feBlend mode="normal" in="SourceGraphic" in2="effect1_dropShadow_0_1" result="shape"/>
</filter>
</defs>
</svg>
